<svg width="16" height="5" viewBox="0 0 16 5" fill="none" xmlns="http://www.w3.org/2000/svg">
<path d="M2.66981 4.264C1.70181 4.264 0.931813 3.538 0.931813 2.636V2.526C0.931813 1.646 1.70181 0.92 2.66981 0.92C3.61581 0.92 4.42981 1.646 4.42981 2.526V2.636C4.42981 3.538 3.61581 4.264 2.66981 4.264ZM7.99794 4.264C7.02994 4.264 6.25994 3.538 6.25994 2.636V2.526C6.25994 1.646 7.02994 0.92 7.99794 0.92C8.94394 0.92 9.75794 1.646 9.75794 2.526V2.636C9.75794 3.538 8.94394 4.264 7.99794 4.264ZM13.3261 4.264C12.3581 4.264 11.5881 3.538 11.5881 2.636V2.526C11.5881 1.646 12.3581 0.92 13.3261 0.92C14.2721 0.92 15.0861 1.646 15.0861 2.526V2.636C15.0861 3.538 14.2721 4.264 13.3261 4.264Z" fill="#121417" fill-opacity="0.5"/>
</svg>
