<svg width="60" height="20" viewBox="0 0 60 20" fill="none" xmlns="http://www.w3.org/2000/svg">
<path d="M2.39662 15.0964C2.43491 14.7518 2.45405 14.5795 2.50618 14.4185C2.55243 14.2756 2.61778 14.1396 2.70045 14.0142C2.79363 13.8729 2.91621 13.7504 3.16136 13.5052L14.1666 2.49999C15.0871 1.57951 16.5795 1.57951 17.4999 2.49999C18.4204 3.42046 18.4204 4.91285 17.4999 5.83332L6.49469 16.8386C6.24954 17.0837 6.12696 17.2063 5.98566 17.2995C5.86029 17.3821 5.72433 17.4475 5.58146 17.4937C5.42042 17.5459 5.24813 17.565 4.90356 17.6033L2.08325 17.9167L2.39662 15.0964Z" stroke="#85AA9F" stroke-width="1.8" stroke-linecap="round" stroke-linejoin="round"/>
<path d="M47.5 2.5H52.5M48.3333 8.75V12.9167M51.6667 8.75V12.9167" stroke="#85AA9F" stroke-width="1.8" stroke-linecap="round" stroke-linejoin="round"/>
<path d="M42.5 5H57.5M55.8333 5L55.2489 13.7661C55.1612 15.0813 55.1174 15.7389 54.8333 16.2375C54.5833 16.6765 54.206 17.0294 53.7514 17.2497C53.235 17.5 52.5759 17.5 51.2578 17.5H48.7422C47.4241 17.5 46.765 17.5 46.2486 17.2497C45.794 17.0294 45.4167 16.6765 45.1667 16.2375C44.8826 15.7389 44.8388 15.0813 44.7511 13.7661L44.1667 5" stroke="#85AA9F" stroke-width="1.8" stroke-linecap="round" stroke-linejoin="round"/>
</svg>
